# xmcd
#
# Track frame offsets: 
#        150
#        13494
#        28124
#        43379
#        65480
#        81397
#        100195
#        116659
#        130242
#        142654
#        159879
#        170665
#
# Disc length: 2495 seconds
#
# Revision: 0
# Processed by: cddbd v1.5.2PL0 Copyright (c) Steve Scherf et al.
# Submitted via: ExactAudioCopy v0.99pb5
#
DISCID=a509bd0c
DTITLE=Teksasy - Boogie cala noc
DYEAR=2007
DGENRE=Blues
TTITLE0=01.Boogie cala noc
TTITLE1=02.Hej,slotka
TTITLE2=03.Krzychu
TTITLE3=04.Jeszcze jeden dzien bez ciebie
TTITLE4=05.Mowie,nie budz mnie
TTITLE5=06.Moja muza
TTITLE6=07.Moj stracony czas
TTITLE7=08.Jestem calkiem sam
TTITLE8=09.Poniedzialek jive
TTITLE9=10.Gruby wraca do domu
TTITLE10=11.Wakacje z blondynka
TTITLE11=12.O tak musi byc
EXTD=
EXTT0=
EXTT1=
EXTT2=
EXTT3=
EXTT4=
EXTT5=
EXTT6=
EXTT7=
EXTT8=
EXTT9=
EXTT10=
EXTT11=
PLAYORDER=
